<svg width="126" height="48" fill="none" xmlns="http://www.w3.org/2000/svg"><path d="M49 17.182v5.682H34.625v-5.682H49Zm-11.59-5.227h7.84v20.028c0 .303.052.559.156.767.104.199.265.35.483.455.218.094.497.142.838.142.237 0 .512-.029.824-.086.322-.056.559-.104.71-.142l1.137 5.512c-.35.104-.853.232-1.506.383-.644.152-1.41.251-2.301.298-1.8.095-3.31-.09-4.531-.553-1.222-.474-2.14-1.217-2.756-2.23-.616-1.014-.914-2.283-.895-3.807V11.954Zm25.067 27.443c-2.368 0-4.394-.469-6.08-1.407-1.686-.947-2.978-2.263-3.878-3.948-.9-1.696-1.35-3.66-1.35-5.895 0-2.235.45-4.195 1.35-5.881a9.558 9.558 0 0 1 3.878-3.949c1.686-.947 3.712-1.42 6.08-1.42 2.367 0 4.394.473 6.08 1.42a9.558 9.558 0 0 1 3.877 3.949c.9 1.686 1.35 3.646 1.35 5.88 0 2.236-.45 4.2-1.35 5.896-.9 1.685-2.192 3.002-3.878 3.949-1.685.937-3.712 1.406-6.08 1.406Zm.056-5.796a2.45 2.45 0 0 0 1.72-.667c.482-.445.856-1.08 1.121-1.904.265-.824.398-1.804.398-2.94 0-1.146-.133-2.126-.398-2.94-.265-.824-.639-1.459-1.122-1.904a2.45 2.45 0 0 0-1.719-.668c-.7 0-1.302.223-1.804.668-.502.445-.885 1.08-1.15 1.904-.265.814-.398 1.794-.398 2.94 0 1.136.133 2.116.398 2.94.265.824.648 1.459 1.15 1.904.502.445 1.104.667 1.804.667Z" fill="#4EA8DE"/><path d="M84.863 39.284a7.955 7.955 0 0 1-4.29-1.221c-1.297-.815-2.339-2.05-3.125-3.708-.776-1.657-1.165-3.745-1.165-6.264 0-2.633.408-4.773 1.222-6.42.824-1.648 1.884-2.856 3.182-3.623 1.307-.767 2.68-1.15 4.12-1.15 1.079 0 2.026.19 2.84.568.814.37 1.496.866 2.045 1.491.55.616.966 1.293 1.25 2.032h.114V9.909h7.841V39h-7.784v-3.58h-.17a6.134 6.134 0 0 1-3.352 3.366c-.796.332-1.705.498-2.728.498Zm2.898-6.023c.72 0 1.335-.208 1.846-.625.521-.426.919-1.022 1.193-1.79.285-.776.427-1.695.427-2.755 0-1.08-.142-2.003-.427-2.77-.274-.777-.672-1.368-1.193-1.776-.511-.416-1.127-.625-1.846-.625-.72 0-1.336.209-1.847.625-.502.408-.89 1-1.165 1.776-.265.767-.397 1.69-.397 2.77s.132 2.008.397 2.784c.275.767.663 1.359 1.165 1.776.511.407 1.127.61 1.847.61Zm25.497 6.137c-2.368 0-4.394-.469-6.08-1.407-1.685-.947-2.978-2.263-3.878-3.948-.899-1.696-1.349-3.66-1.349-5.895 0-2.235.45-4.195 1.349-5.881a9.565 9.565 0 0 1 3.878-3.949c1.686-.947 3.712-1.42 6.08-1.42 2.367 0 4.394.473 6.079 1.42a9.553 9.553 0 0 1 3.878 3.949c.9 1.686 1.35 3.646 1.35 5.88 0 2.236-.45 4.2-1.35 5.896-.899 1.685-2.192 3.002-3.878 3.949-1.685.937-3.712 1.406-6.079 1.406Zm.057-5.796a2.45 2.45 0 0 0 1.718-.667c.483-.445.857-1.08 1.123-1.904.265-.824.397-1.804.397-2.94 0-1.146-.132-2.126-.397-2.94-.266-.824-.64-1.459-1.123-1.904a2.449 2.449 0 0 0-1.718-.668c-.701 0-1.302.223-1.804.668-.502.445-.886 1.08-1.151 1.904-.265.814-.398 1.794-.398 2.94 0 1.136.133 2.116.398 2.94.265.824.649 1.459 1.151 1.904.502.445 1.103.667 1.804.667Z" fill="#5E60CE"/><g clip-path="url('#clip0_79_1838')"><path d="M11.02 12.933a22 22 0 0 1 4.735 13.883v1.198l1.03.628a6.44 6.44 0 0 1 2.801 3.525 12.382 12.382 0 0 0-1.303-.84l-2.75-1.543-.494 3.116a7.9 7.9 0 0 1-.172.818H7.16a13.127 13.127 0 0 1-.294-1.072l-.623-2.82-2.535 1.41c-.423.237-.832.498-1.225.783a6.7 6.7 0 0 1 2.758-3.525l.98-.628v-1.114c.018-5 1.707-9.857 4.806-13.819h-.007ZM11.029 10a.672.672 0 0 0-.437.162l-.064.057c-4.13 4.547-6.423 10.426-6.446 16.526A8.787 8.787 0 0 0 .417 31.52a8.644 8.644 0 0 0 .299 5.977 9.709 9.709 0 0 1 4.067-4.4c.18.767.42 1.52.716 2.25.038.14.122.264.238.354a.68.68 0 0 0 .407.14h9.94c.2 0 .401-.191.501-.487.29-.695.492-1.422.602-2.165a9.63 9.63 0 0 1 4.068 4.4 8.415 8.415 0 0 0 .373-5.992 8.557 8.557 0 0 0-3.725-4.753c.07-6.136-2.21-12.072-6.388-16.625a.666.666 0 0 0-.494-.219h.007Z" fill="#4EA8DE"/><path d="M11.02 26.16c-.55 0-1.088-.16-1.545-.46a2.753 2.753 0 0 1-1.027-1.228 2.703 2.703 0 0 1-.162-1.582 2.73 2.73 0 0 1 .757-1.405 2.799 2.799 0 0 1 1.42-.755 2.827 2.827 0 0 1 1.608.147c.51.205.946.553 1.255 1.001.309.448.476.977.48 1.518a2.635 2.635 0 0 1-.75 1.908c-.245.254-.54.458-.866.6-.326.142-.677.22-1.034.228a.437.437 0 0 1-.136 0v.028Z" fill="#4EA8DE"/><path d="M14.895 37.596a1.366 1.366 0 0 0-.975.368 1.324 1.324 0 0 0-.414.943v4.16c0 .363.146.71.407.967.26.257.614.4.982.4a1.4 1.4 0 0 0 .983-.4c.26-.256.407-.604.407-.967v-4.103a1.308 1.308 0 0 0-.372-.958 1.346 1.346 0 0 0-.953-.41h-.065ZM7.16 37.596a1.38 1.38 0 0 0-.998.357 1.341 1.341 0 0 0-.433.954v4.16c0 .363.146.71.406.967a1.4 1.4 0 0 0 1.965 0c.26-.256.407-.604.407-.967v-4.103a1.307 1.307 0 0 0-.371-.957 1.346 1.346 0 0 0-.954-.411h-.021ZM10.92 37.596a1.379 1.379 0 0 0-.97.372 1.34 1.34 0 0 0-.419.94v5.731c0 .363.147.71.407.967s.614.401.983.401a1.4 1.4 0 0 0 .982-.4c.26-.257.407-.605.407-.968V39a1.308 1.308 0 0 0-.371-.957 1.347 1.347 0 0 0-.954-.411l-.064-.035Z" fill="#5E60CE"/></g><defs><clipPath id="clip0_79_1838"><path fill="#fff" transform="translate(0 10)" d="M0 0h22v36H0z"/></clipPath></defs></svg>